<?xml version="1.0" standalone="no"?><!DOCTYPE svg PUBLIC "-//W3C//DTD SVG 1.1//EN" "http://www.w3.org/Graphics/SVG/1.1/DTD/svg11.dtd"><svg t="1603854141265" class="icon" viewBox="0 0 1024 1024" version="1.1" xmlns="http://www.w3.org/2000/svg" p-id="3041" xmlns:xlink="http://www.w3.org/1999/xlink" width="64" height="64"><defs><style type="text/css"></style></defs><path d="M190.97509765625 664.2740234375001l281.25 281.25c21.965625 21.966503906249997 57.58242187500001 21.9673828125 79.548046875 0l281.25-281.25c21.965625-21.966503906249997 21.965625-57.58242187500001 0-79.5498046875-21.965625-21.969140625-57.58242187500001-21.969140625-79.548046875 0l-185.2259765625 185.2294921875v-651.7028320312501c0-31.0640625-25.182421875000003-56.25-56.25-56.25-31.064941406249996 0-56.25 25.185937499999998-56.25 56.25v651.7028320312501l-185.2259765625-185.2259765625c-10.9828125-10.98369140625-25.379296875-16.477734375-39.7740234375-16.477734375-14.39384765625 0-28.79033203125 5.49140625-39.77314453125 16.47421875-21.9673828125 21.9708984375-21.9673828125 57.58242187500001 0 79.5498046875z" p-id="3042" fill="#1296db"></path></svg>